<?xml version="1.0" encoding="UTF-8"?>
<svg id="uuid-2a196638-dc77-4194-b590-de7a26397c50" data-name="Layer_1" xmlns="http://www.w3.org/2000/svg" viewBox="0 0 30.28 30.28">
  <defs>
    <style>
      .uuid-a1c169df-fa15-46b8-82b5-4f462111d870 {
        fill: #fff;
      }

      .uuid-199513e2-9dbd-497f-b4bc-2bad7f4f0fdd {
        fill: none;
        stroke: #fff;
        stroke-miterlimit: 10;
        stroke-width: .28px;
      }

      .uuid-2b1efcbc-176b-471c-b508-e47de601e702 {
        fill: #141613;
      }
    </style>
  </defs>
  <g>
    <path class="uuid-a1c169df-fa15-46b8-82b5-4f462111d870" d="M15.14,28.44h0c-7.35,0-13.3-5.95-13.3-13.3h0C1.84,7.79,7.79,1.84,15.14,1.84h0c7.35,0,13.3,5.95,13.3,13.3h0c0,7.35-5.95,13.3-13.3,13.3Z"/>
    <path class="uuid-199513e2-9dbd-497f-b4bc-2bad7f4f0fdd" d="M15.14,30.14h0C6.86,30.14.14,23.42.14,15.14H.14C.14,6.86,6.86.14,15.14.14h0c8.28,0,15,6.72,15,15h0c0,8.28-6.72,15-15,15Z"/>
  </g>
  <path class="uuid-2b1efcbc-176b-471c-b508-e47de601e702" d="M20.89,9.09h-11.49c-.97,0-1.75.79-1.75,1.75v8.6c0,.97.79,1.75,1.75,1.75h11.49c.97,0,1.75-.79,1.75-1.75v-8.6c0-.97-.79-1.75-1.75-1.75ZM19.72,10.8l-4.57,3.28-4.44-3.28h9.01ZM20.89,19.48h-11.49s-.04-.02-.04-.04v-7.51l5.78,4.27,5.79-4.16v7.39s-.02.04-.04.04Z"/>
</svg>