<?xml version="1.0" encoding="UTF-8"?>
<svg id="uuid-41bc17d9-0597-4e34-8f91-a284a1142364" data-name="Layer_1" xmlns="http://www.w3.org/2000/svg" viewBox="0 0 30.28 30.28">
  <defs>
    <style>
      .uuid-264d9464-d3be-48bf-8a6e-e754444d82e0 {
        fill: #fff;
      }

      .uuid-eeccc661-bf83-444f-9ff7-7615f10bd39c {
        fill: none;
        stroke: #fff;
        stroke-miterlimit: 10;
        stroke-width: .28px;
      }

      .uuid-c34765fc-2074-46b5-a940-641ee55f285f {
        fill: #141613;
      }
    </style>
  </defs>
  <g>
    <path class="uuid-264d9464-d3be-48bf-8a6e-e754444d82e0" d="M15.14,28.44h0c-7.35,0-13.3-5.95-13.3-13.3h0C1.84,7.79,7.79,1.84,15.14,1.84h0c7.35,0,13.3,5.95,13.3,13.3h0c0,7.35-5.95,13.3-13.3,13.3Z"/>
    <path class="uuid-eeccc661-bf83-444f-9ff7-7615f10bd39c" d="M15.14,30.14h0C6.86,30.14.14,23.42.14,15.14H.14C.14,6.86,6.86.14,15.14.14h0c8.28,0,15,6.72,15,15h0c0,8.28-6.72,15-15,15Z"/>
  </g>
  <g>
    <path class="uuid-c34765fc-2074-46b5-a940-641ee55f285f" d="M15.14,6.83c-3.21,0-5.81,2.71-5.81,6.06,0,5.36,5.81,10.55,5.81,10.55,0,0,5.81-5.19,5.81-10.55,0-3.35-2.6-6.06-5.81-6.06ZM15.14,16.22c-1.88,0-3.41-1.53-3.41-3.41s1.53-3.41,3.41-3.41,3.41,1.53,3.41,3.41-1.53,3.41-3.41,3.41Z"/>
    <path class="uuid-c34765fc-2074-46b5-a940-641ee55f285f" d="M15.03,11.28c0,.78-.63,1.42-1.42,1.42s-1.42-.63-1.42-1.42.63-1.42,1.42-1.42,1.42.63,1.42,1.42Z"/>
  </g>
</svg>