<?xml version="1.0" encoding="UTF-8"?>
<svg xmlns="http://www.w3.org/2000/svg" version="1.1" viewBox="0 0 31.4 31.4">
  <defs>
    <style>
      .cls-1 {
        fill: none;
        stroke: #000;
        stroke-miterlimit: 10;
        stroke-width: 1.4px;
      }

      .cls-2 {
        fill: #fff;
      }
    </style>
  </defs>
  <!-- Generator: Adobe Illustrator 28.7.1, SVG Export Plug-In . SVG Version: 1.2.0 Build 142)  -->
  <g>
    <g id="uuid-41bc17d9-0597-4e34-8f91-a284a1142364">
      <path d="M15.7,29h0c-7.3,0-13.3-5.9-13.3-13.3h0c0-7.4,5.9-13.3,13.3-13.3h0c7.3,0,13.3,5.9,13.3,13.3h0c0,7.3-5.9,13.3-13.3,13.3Z"/>
      <path class="cls-1" d="M15.7,30.7h0C7.4,30.7.7,24,.7,15.7h0C.7,7.4,7.4.7,15.7.7h0c8.3,0,15,6.7,15,15h0c0,8.3-6.7,15-15,15Z"/>
      <g>
        <path class="cls-2" d="M15.7,7.4c-3.2,0-5.8,2.7-5.8,6.1,0,5.4,5.8,10.5,5.8,10.5,0,0,5.8-5.2,5.8-10.6s-2.6-6.1-5.8-6.1ZM15.7,16.8c-1.9,0-3.4-1.5-3.4-3.4s1.5-3.4,3.4-3.4,3.4,1.5,3.4,3.4-1.5,3.4-3.4,3.4Z"/>
        <path class="cls-2" d="M15.6,11.8c0,.8-.6,1.4-1.4,1.4s-1.4-.6-1.4-1.4.6-1.4,1.4-1.4,1.4.6,1.4,1.4Z"/>
      </g>
    </g>
  </g>
</svg>