<?xml version="1.0" encoding="UTF-8"?>
<svg id="uuid-76e2a157-41fb-4fb7-9be8-f0c3f7cd1706" data-name="Layer_1" xmlns="http://www.w3.org/2000/svg" viewBox="0 0 30.28 30.28">
  <defs>
    <style>
      .uuid-bfb18897-136c-4a72-b823-472246843dfc {
        fill: #fff;
      }

      .uuid-3f657fcf-9559-457a-b723-0e205b191d37 {
        fill: none;
        stroke: #fff;
        stroke-miterlimit: 10;
        stroke-width: .28px;
      }

      .uuid-9e5198bd-09ac-4d74-9348-8425c22f44f2 {
        fill: #141613;
        fill-rule: evenodd;
      }
    </style>
  </defs>
  <g>
    <path class="uuid-bfb18897-136c-4a72-b823-472246843dfc" d="M15.14,28.44h0c-7.35,0-13.3-5.95-13.3-13.3h0C1.84,7.79,7.79,1.84,15.14,1.84h0c7.35,0,13.3,5.95,13.3,13.3h0c0,7.35-5.95,13.3-13.3,13.3Z"/>
    <path class="uuid-3f657fcf-9559-457a-b723-0e205b191d37" d="M15.14,30.14h0C6.86,30.14.14,23.42.14,15.14H.14C.14,6.86,6.86.14,15.14.14h0c8.28,0,15,6.72,15,15h0c0,8.28-6.72,15-15,15Z"/>
  </g>
  <path class="uuid-9e5198bd-09ac-4d74-9348-8425c22f44f2" d="M21.13,17.72c-.33-.16-1.94-.95-2.24-1.06-.3-.11-.52-.16-.74.16-.22.33-.85,1.06-1.04,1.27-.19.22-.38.24-.71.08-.33-.16-1.38-.5-2.64-1.61-.97-.86-1.63-1.92-1.82-2.25-.19-.33-.02-.5.14-.66.15-.15.33-.38.49-.57.04-.06.08-.11.12-.16.08-.12.13-.23.21-.39.11-.22.06-.41-.02-.57-.08-.16-.74-1.77-1.01-2.42-.27-.65-.54-.54-.74-.54s-.41-.03-.63-.03-.58.08-.88.41c-.3.33-1.15,1.11-1.15,2.72,0,.38.07.75.17,1.11.33,1.15,1.05,2.09,1.17,2.25.16.21,2.27,3.6,5.6,4.91,3.34,1.3,3.34.86,3.94.81.6-.05,1.94-.78,2.21-1.55.28-.76.28-1.41.19-1.55-.08-.13-.3-.21-.63-.38Z"/>
</svg>